<svg xmlns="http://www.w3.org/2000/svg" viewBox="0 0 173.37 101.32"><defs><style>.cls-1,.cls-2,.cls-3{fill:#fff;}.cls-1{fill-rule:evenodd;}.cls-2{font-size:17px;font-family:CenturyGothic, Century Gothic;}</style></defs><title>logoAsset 4</title><g id="Layer_2" data-name="Layer 2"><g id="Capa_1" data-name="Capa 1"><path class="cls-1" d="M173.37,91.35H144.84v-.86h28.53Z"/><path class="cls-1" d="M28.53,91.35H0v-.86H28.53Z"/></g><g id="logo"><text class="cls-2" transform="translate(33.53 93.03)">Photography</text><path class="cls-3" d="M62.62,69.31V58h.24l7.54,8.68V58h1.11V69.31h-.25l-7.47-8.57v8.57Z"/><path class="cls-3" d="M79,58h1.14V69.31H79Z"/><path class="cls-3" d="M91.47,57.68h1.14v7.64a7.53,7.53,0,0,1-.28,2.45,2.22,2.22,0,0,1-.91,1.1,2.74,2.74,0,0,1-1.55.41A3.8,3.8,0,0,1,88.52,69a5.82,5.82,0,0,1-1.47-.94l.6-.9a8.62,8.62,0,0,0,1.47.88,1.94,1.94,0,0,0,.76.17,1.47,1.47,0,0,0,.88-.29,1.57,1.57,0,0,0,.56-.78,7.58,7.58,0,0,0,.15-1.88Z"/><path class="cls-3" d="M105.07,57.71a5.9,5.9,0,0,1,4.31,1.71,6,6,0,0,1-8.47,8.45,5.69,5.69,0,0,1-1.73-4.17,6,6,0,0,1,.79-3,5.83,5.83,0,0,1,5.1-3Zm.05,1.1A4.81,4.81,0,0,0,101,61.23a4.91,4.91,0,0,0-.63,2.47,4.76,4.76,0,0,0,4.77,4.8,4.91,4.91,0,0,0,2.44-.64,4.6,4.6,0,0,0,1.75-1.75,4.91,4.91,0,0,0,.63-2.47,4.71,4.71,0,0,0-2.4-4.18A4.83,4.83,0,0,0,105.12,58.81Z"/><path class="cls-1" d="M106.83,32c-3.69-8.56-10.26-12.21-18.62-12.37-8.64-.16-13.65,5.64-17.78,12.43,1.46-8,10-16.08,19.66-14.91C98.87,18.2,107.2,25.28,106.83,32Z"/><path class="cls-1" d="M135.3,26.7c-1.28-5.07-4.77-7.5-9.55-8.82A138.9,138.9,0,0,0,111.68,15a5.62,5.62,0,0,1-4.32-3.15c7.57,2,15,2.26,21.81,5.17C134.06,19.05,136,22.35,135.3,26.7Z"/><path class="cls-1" d="M97.84,4C90.25,1.71,83,1.46,75.59,4.12A7.53,7.53,0,0,1,82.29.05C85.47,0,88.66,0,91.83.13,94.53.25,96.75,1.3,97.84,4Z"/><path class="cls-1" d="M100.32,31.85c-2.48-5.19-6.62-7.3-11.79-7.19-5.34.1-8.3,3.8-10.69,8.09.71-5,5.79-10.16,11.79-9.67C95.08,23.52,100.4,27.7,100.32,31.85Z"/><path class="cls-1" d="M43.17,25.61c.65-5,3.2-7.45,6.83-8.83a83.46,83.46,0,0,1,10.72-3.12c1.41-.34,2.34-1.12,3.15-3.17-5.75,2.07-11.5,2.48-16.59,5.45C43.62,18.07,42.32,21.36,43.17,25.61Z"/><path class="cls-1" d="M64.31,22.25s-2.42,4.8-6,1.6S60.71,24.25,64.31,22.25Z"/><path class="cls-1" d="M70.3,37.42c3.87,8.48,10.51,12,18.88,12,8.63,0,13.51-5.92,17.5-12.79-1.29,8-9.65,16.28-19.34,15.32C78.55,51,70.07,44.14,70.3,37.42Z"/><path class="cls-1" d="M77.4,37.42c2.59,5.15,6.78,7.16,11.95,6.95,5.33-.22,8.21-4,10.51-8.32-.61,5-5.58,10.29-11.59,9.92C82.82,45.64,77.42,41.57,77.4,37.42Z"/></g></g></svg>